<svg width="187" height="80" viewBox="0 0 187 80" fill="none" xmlns="http://www.w3.org/2000/svg">
<path d="M186.5 40C186.5 42.5213 184.806 45.0875 181.319 47.659C177.846 50.2209 172.692 52.713 166.007 55.0989C152.642 59.8685 133.275 64.1724 109.309 67.7899C61.3846 75.0237 -4.83923 79.5 -78 79.5C-151.161 79.5 -217.385 75.0237 -265.309 67.7899C-289.275 64.1724 -308.642 59.8685 -322.007 55.0989C-328.692 52.713 -333.846 50.2209 -337.319 47.659C-340.806 45.0875 -342.5 42.5213 -342.5 40C-342.5 37.4787 -340.806 34.9125 -337.319 32.341C-333.846 29.7791 -328.692 27.287 -322.007 24.9011C-308.642 20.1315 -289.275 15.8276 -265.309 12.2101C-217.385 4.97631 -151.161 0.5 -78 0.5C-4.83923 0.5 61.3846 4.97631 109.309 12.2101C133.275 15.8276 152.642 20.1315 166.007 24.9011C172.692 27.287 177.846 29.7791 181.319 32.341C184.806 34.9125 186.5 37.4787 186.5 40Z" stroke="lightgray"/>
</svg>
